<?xml version="1.0" standalone="no"?>
<svg viewBox="0 0 200 200" xmlns="http://www.w3.org/2000/svg">
  <path fill="#000051" d="M36,-54.6C47.8,-48.5,59.2,-40.3,68.5,-28.7C77.8,-17.1,85,-1.9,81.2,10.4C77.5,22.7,62.7,32.1,51.6,44.5C40.6,57,33.2,72.4,20.9,80.1C8.6,87.7,-8.6,87.7,-23.5,82.2C-38.4,76.8,-51.1,66.1,-61.3,53.5C-71.4,41,-79,26.7,-81.7,11.4C-84.3,-3.8,-82.1,-20.1,-73.8,-31.9C-65.6,-43.6,-51.4,-50.8,-38.1,-56.3C-24.8,-61.7,-12.4,-65.5,-0.1,-65.3C12.1,-65.1,24.2,-60.8,36,-54.6Z" transform="translate(100 100)" />
</svg>
